<svg version="1.1" fill="#f75400"
  xmlns="http://www.w3.org/2000/svg"
  xmlns:xlink="http://www.w3.org/1999/xlink" width="108px" height="25px" viewBox="0 0 606.6 98.4" xml:space="preserve">
  <g>
    <path class="st0" d="M478.6,54.6c-0.8-0.2-1.7-0.3-2.6-0.5c-5.9-1.2-9.3-2-9.3-5.4c0-2.9,2.6-4.7,7.1-4.7c2.3,0,4.7,0.6,6.8,1.6
											c0.9,0.4,1.9,0.8,3.1,1.1c0.6,0.2,1.2,0.3,1.9,0.3c3.2,0,5.8-2.6,5.8-5.9c0-2.5-1.6-4.7-4-5.5l-0.9-0.3c-3.6-1.3-7.4-2.7-13.1-2.7
											c-5.4,0-10.2,1.5-13.6,4.2c-3.8,3-5.9,7.6-5.8,12.4c0,10.5,6.8,13.6,13.5,15.1c1.3,0.3,2.6,0.6,3.8,0.8c6.1,1.2,9.6,2,9.6,5.6
											c0,4.6-5.3,5.3-8.5,5.3c-3.7,0-6-1.2-8.2-2.3l0,0c-0.9-0.4-1.7-0.8-2.6-1.2c-3-1.1-6.4,0.4-7.5,3.5c0,0.1,0,0.1-0.1,0.2
											c-1,2.8,0.3,5.7,3.2,7.4c3.4,1.8,7.6,3.8,15.1,3.8c6,0,11.2-1.4,15-4c4.4-3.1,6.6-7.5,6.6-13.1C493.8,57.9,483.9,55.8,478.6,54.6z"></path>
    <path class="st0" d="M66.3,54.6c-0.9-0.2-1.8-0.4-2.6-0.5c-5.9-1.2-9.3-2-9.3-5.4c0-2.9,2.6-4.7,7.1-4.7c2.3,0,4.7,0.6,6.8,1.6
											c0.9,0.4,1.9,0.8,3.1,1.1c0.6,0.2,1.2,0.3,1.9,0.3c3.2,0,5.8-2.6,5.8-5.9c0-2.5-1.6-4.8-4.1-5.6l-0.9-0.3
											c-3.6-1.3-7.4-2.7-13.1-2.7c-5.4,0-10.2,1.5-13.6,4.2c-3.8,3-5.9,7.6-5.8,12.4c0,10.5,6.8,13.6,13.4,15.1c1.3,0.3,2.6,0.5,3.8,0.8
											c6.1,1.2,9.6,2,9.6,5.6c0,4.6-5.3,5.3-8.5,5.3c-3.7,0-6-1.2-8.2-2.3h-0.1c-0.8-0.4-1.7-0.8-2.5-1.2c-3.1-1.1-6.4,0.5-7.5,3.6v0.1
											c-1,2.8,0.3,5.7,3.3,7.4c3.4,1.8,7.6,3.8,15.1,3.8c6,0,11.2-1.4,15-4c4.4-3.1,6.6-7.5,6.6-13.1C81.5,57.9,71.6,55.8,66.3,54.6z"></path>
    <path class="st0" d="M123.7,32.7c-3.7,0-6.7,2.9-6.8,6.6v30.9l0,0c-1.9,3.1-5.1,4.6-9.3,4.6c-6.1,0-7.4-3.1-7.4-8.2l0.1-27.4
											c-0.1-3.7-3.3-6.7-7-6.6c-3.6,0.1-6.4,3-6.6,6.6v28.6c0,12.8,6.2,19.6,18,19.6c5.3,0,9.8-1.2,13.4-3.6l0,0v0.1
											c1.1,2.2,3.3,3.6,5.8,3.6c3.5,0,6.4-2.7,6.4-6.2V39.2C130.4,35.6,127.3,32.6,123.7,32.7z"></path>
    <path class="st0" d="M165,32.7c-5.1,0-9.5,1.1-13,3.4l0,0l0,0c-1.2-2.1-3.4-3.4-5.8-3.4c-3.6,0-6.6,2.9-6.6,6.5v41.7
											c0.1,3.7,3.2,6.6,7,6.5c3.5-0.1,6.4-3,6.5-6.5v-31c2-2.9,5.3-4.6,9.3-4.6c6.5,0,7.4,4,7.4,8.3v27.3c0,3.7,3,6.7,6.7,6.7
											s6.7-3,6.7-6.7V52.5C183,39.3,176.9,32.7,165,32.7z"></path>
    <path class="st0" d="M217.6,74.7h-1.9c-2.3,0-4-0.3-5.2-1.2c-2-1.5-2.7-4.6-2.7-10.4V44.7h7.5c3.1,0,5.7-2.5,5.7-5.7
											s-2.5-5.7-5.7-5.7h-7.5v-7.6c-0.1-3.7-3.2-6.6-7-6.5c-3.5,0.1-6.4,3-6.5,6.5v7.6H193c-3.1,0-5.7,2.5-5.7,5.7c0,3.1,2.5,5.7,5.7,5.7
											h1.3v18.6c0,7.6,1.4,13.1,4.2,16.9c2.7,3.6,6.6,5.7,11.9,6.4c1.3,0.2,2.5,0.2,3.8,0.3h3.4c3.4,0,6.1-2.6,6.1-6v-0.1
											C223.7,77.4,221,74.7,217.6,74.7z"></path>
    <path class="st0" d="M249.4,32.7c-4.7,0-11.3,0.6-16.1,3.7c-2.2,1.3-3.3,3.9-2.5,6.3c0.7,2.5,3,4.2,5.6,4.2c1.1,0,2.1-0.3,3.1-0.8
											c2.8-1.6,6-2.4,9.2-2.3c6.8,0,8.1,3.2,8.1,9.6v1.1h-9.3c-12.8,0-20.5,6-20.5,16v0.7c0,10.2,7.1,16.4,19.1,16.4c4.9,0,9.1-1,12.3-3
											l0,0l0,0c1.9,3,5.8,3.9,8.8,2.1c1.8-1.1,3-3.1,3-5.3V54.6c0-7.7-1.5-12.9-4.6-16.4C262.1,34.4,257,32.7,249.4,32.7z M256.6,68.9
											c0,5.3-3,8.2-8.4,8.2s-8.1-1.9-8.1-5.8v-0.7c0-3.8,2.8-5.8,8.4-5.8h8.1V68.9L256.6,68.9z"></path>
    <path class="st0" d="M302.8,32.7c9.1,0,9.1,6.4,8.4,8.9c-0.8,2.2-1.9,4.6-5.6,4.4c-1.6-0.3-3.2-0.5-4.8-0.5c-0.5,0-1,0-1.5,0.1
											c-4,0.4-5.6,2.5-6.6,6.4v28.8c0,3.7-3.1,6.7-6.8,6.7c-0.1,0-0.2,0-0.3,0c-3.6-0.1-6.4-3.1-6.4-6.7V39.1c0.1-3.5,2.9-6.4,6.4-6.4
											c0.1,0,0.2,0,0.2,0c2.6,0,5,1.5,6.1,4v0.1C295,34.1,298.9,32.7,302.8,32.7z"></path>
    <path class="st0" d="M350.5,34.6c-3-1.4-6.3-2.1-9.6-2c-3.9,0-7.7,1.1-10.9,3.1l-0.1,0.1V18.5c0-3.7-3-6.7-6.7-6.7s-6.7,3-6.7,6.7
											v53.7c0,0.1,0,0.3,0,0.4v8.7c0.1,3.5,3,6.3,6.6,6.3c2.1-0.1,4-1.1,5.2-2.8l0,0l0,0c3.4,1.8,7.3,2.7,11.2,2.8
											c3.9,0.1,7.7-0.8,11.1-2.5c1.6-0.9,3.1-2.1,4.3-3.4c3.3-3.8,5-9.3,5-16.3v-9.2c0-7.7-1.3-13.3-4-17.1
											C354.4,37.2,352.6,35.7,350.5,34.6z M346.2,66.1c0,6.8-2.6,9.7-8.6,9.7c-2.8-0.1-5.5-1-7.8-2.7l0,0V48l0,0c2.2-2.3,5.2-3.6,8.4-3.7
											c5.7,0,8,2.9,8,10.1V66.1L346.2,66.1z"></path>
    <path class="st0" d="M388.3,32.7c-5,0-9.2,1.1-12.6,3.3c-1.6,1-3,2.2-4.1,3.6c-3.4,4-5.1,9.4-5.1,15.8v9.5c0,6.5,1.7,12,4.9,15.8
											c1.3,1.5,2.7,2.8,4.4,3.8c3.3,2,7.5,3.1,12.5,3.1c5.7,0.1,11.3-1.1,16.5-3.5c2.8-1.4,4-4.8,2.6-7.6c-0.9-1.8-2.7-3-4.8-3.2
											c-0.7,0-1.4,0.1-2.1,0.4c-3.6,1.8-7.5,2.6-11.5,2.5c-5.9,0-8.9-3.5-9-10.3v-1.3h25c2.8,0.1,5.1-2.2,5.2-5c0-0.1,0-0.2,0-0.2v-4.2
											c0-6.5-1.7-11.9-4.9-15.7C401.3,34.9,395.7,32.7,388.3,32.7z M396.9,53.9h-17v-0.4c0-6.5,2.9-9.8,8.6-9.8s8.4,3,8.4,9.8V53.9z"></path>
    <path class="st0" d="M443.8,74.7h-1.9c-6.3,0-7.9-2.4-7.9-11.6V44.7h7.5c3.1,0.1,5.8-2.3,5.9-5.5c0.1-3.1-2.3-5.8-5.5-5.9
											c-0.1,0-0.3,0-0.4,0H434v-7.6c0-3.7-3.1-6.7-6.8-6.7c-1,0-2,0.2-2.9,0.7c-2.3,1.1-3.8,3.4-3.8,6v7.6h-1.3c-3.1-0.1-5.8,2.3-5.9,5.5
											c-0.1,3.1,2.3,5.8,5.5,5.9c0.1,0,0.3,0,0.4,0h1.3v18.6c0,7.2,1.3,12.5,3.8,16.4c0.1,0.2,0.2,0.4,0.4,0.6c3.3,4.5,8.4,6.7,15.7,6.7
											h3.4c3.4,0,6.1-2.6,6.1-6v-0.1C449.9,77.4,447.1,74.7,443.8,74.7z"></path>
    <path class="st0" d="M517.7,77.4c-1.8-1.2-2.7-1.9-2.7-5.1V18.6c0-3.7-3-6.7-6.7-6.7c-3.7,0-6.7,3-6.7,6.7v55.1
											c0,4.9,1.8,9,5.1,11.5c1.9,1.4,4.2,2.2,6.6,2.3c4.2,0,6.7-2.2,6.7-5.8C519.9,80,519.1,78.4,517.7,77.4z"></path>
    <path class="st0" d="M536.2,10.8c-4.2,0-7.6,3.5-7.6,7.8s3.5,7.6,7.8,7.6c4.2,0,7.6-3.5,7.6-7.7C544,14.2,540.6,10.8,536.2,10.8
											C536.3,10.8,536.3,10.8,536.2,10.8z"></path>
    <path class="st0" d="M536.2,32.7c-3.7,0-6.7,2.9-6.8,6.6v41.5c0.1,3.7,3.3,6.7,7,6.6c3.6-0.1,6.4-3,6.6-6.6V39.3
											C543,35.6,539.9,32.6,536.2,32.7z"></path>
    <path class="st0" d="M39.8,23.9c1-0.6,2.1-0.9,3.2-0.8c4.2,0,6.7,5.7,1.9,8.5c-4,2.4-7,6.2-8.6,10.6C35.6,44,34.4,46,31.6,46
											c-3.8,0-5.3-3-4.5-6.2C29,32.9,33.6,27.1,39.8,23.9z"></path>
    <path class="st0" d="M29.8,12.3c1.2-0.5,2.4-0.9,3.7-0.9c5.2,0,6.6,6.4,2,8.8c-4.4,2.3-11.8,7.5-14.4,19.4
											c-0.5,2.2-2.4,3.8-4.7,3.8c-3.8,0-5.9-3.2-5-7.1C14.6,22,22.3,16,29.8,12.3z"></path>
    <path class="st0" d="M580.5,82.1c-1.2,1.5-3.7,5.3-9.1,5.3c-5.6,0-7.2-3.3-9.1-9.1C557.6,64.5,550,40.9,550,40.9
											c-1.1-3.5,1.9-8.3,6.3-8.3s5.6,1.9,6.6,5.1l10.2,31.8c8.6-11.7,9.1-30,9.1-30.7c0,0-0.2-6.3,6.8-6.3c4.2,0,6.3,2.3,6.3,6
											C595.2,45.3,592.4,66.5,580.5,82.1z"></path>
  </g>
</svg>